HIERARCHY
ROOT mixamorigHips
{
	OFFSET 0.000000 95.415794 0.000000
	CHANNELS 6 Xposition Yposition Zposition Xrotation Yrotation Zrotation
	JOINT mixamorigSpine
	{
		OFFSET 0.000000 10.058800 -0.358200
		CHANNELS 3 Xrotation Yrotation Zrotation
		JOINT mixamorigSpine1
		{
			OFFSET 0.000000 11.735359 -0.417847
			CHANNELS 3 Xrotation Yrotation Zrotation
			JOINT mixamorigSpine2
			{
				OFFSET 0.000000 13.411812 -0.477538
				CHANNELS 3 Xrotation Yrotation Zrotation
				JOINT mixamorigNeck
				{
					OFFSET 0.000000 15.088242 -0.537228
					CHANNELS 3 Xrotation Yrotation Zrotation
					JOINT mixamorigHead
					{
						OFFSET 0.000000 8.085602 2.687800
						CHANNELS 3 Xrotation Yrotation Zrotation
						JOINT mixamorigHeadTop_End
						{
							OFFSET 0.000000 21.499207 7.146700
							CHANNELS 3 Xrotation Yrotation Zrotation
							End Site
							{
								OFFSET 0.000000 22.655930 0.000000
							}
						}
					}
				}
				JOINT mixamorigLeftShoulder
				{
					OFFSET 5.949100 13.237015 -0.535855
					CHANNELS 3 Xrotation Yrotation Zrotation
					JOINT mixamorigLeftArm
					{
						OFFSET 11.918104 -3.676208 0.002851
						CHANNELS 3 Xrotation Yrotation Zrotation
						JOINT mixamorigLeftForeArm
						{
							OFFSET 23.814898 0.000000 -0.000001
							CHANNELS 3 Xrotation Yrotation Zrotation
							JOINT mixamorigLeftHand
							{
								OFFSET 24.556309 0.000000 -0.000001
								CHANNELS 3 Xrotation Yrotation Zrotation
								JOINT mixamorigLeftHandThumb1
								{
									OFFSET 2.802582 -1.204224 2.556223
									CHANNELS 3 Xrotation Yrotation Zrotation
									JOINT mixamorigLeftHandThumb2
									{
										OFFSET 2.466209 -1.423859 1.423865
										CHANNELS 3 Xrotation Yrotation Zrotation
										JOINT mixamorigLeftHandThumb3
										{
											OFFSET 2.369835 -1.368225 1.368225
											CHANNELS 3 Xrotation Yrotation Zrotation
											JOINT mixamorigLeftHandThumb4
											{
												OFFSET 1.846512 -1.066086 1.066086
												CHANNELS 3 Xrotation Yrotation Zrotation
												End Site
												{
													OFFSET 1.556206 -1.025696 1.486212
												}
											}
										}
									}
								}
								JOINT mixamorigLeftHandIndex1
								{
									OFFSET 8.620476 -0.225967 2.435161
									CHANNELS 3 Xrotation Yrotation Zrotation
									JOINT mixamorigLeftHandIndex2
									{
										OFFSET 3.045731 0.000000 -0.000000
										CHANNELS 3 Xrotation Yrotation Zrotation
										JOINT mixamorigLeftHandIndex3
										{
											OFFSET 2.806702 0.000000 -0.000000
											CHANNELS 3 Xrotation Yrotation Zrotation
											JOINT mixamorigLeftHandIndex4
											{
												OFFSET 2.440117 0.000000 -0.000000
												CHANNELS 3 Xrotation Yrotation Zrotation
												End Site
												{
													OFFSET 2.440094 -0.000061 -0.008200
												}
											}
										}
									}
								}
								JOINT mixamorigLeftHandMiddle1
								{
									OFFSET 8.484863 0.000000 -0.000000
									CHANNELS 3 Xrotation Yrotation Zrotation
									JOINT mixamorigLeftHandMiddle2
									{
										OFFSET 3.193611 0.000000 -0.000000
										CHANNELS 3 Xrotation Yrotation Zrotation
										JOINT mixamorigLeftHandMiddle3
										{
											OFFSET 3.085205 0.000000 -0.000000
											CHANNELS 3 Xrotation Yrotation Zrotation
											JOINT mixamorigLeftHandMiddle4
											{
												OFFSET 2.692902 0.000000 -0.000000
												CHANNELS 3 Xrotation Yrotation Zrotation
												End Site
												{
													OFFSET 2.692902 -0.000031 -0.003300
												}
											}
										}
									}
								}
								JOINT mixamorigLeftHandRing1
								{
									OFFSET 8.270775 0.052689 -2.023483
									CHANNELS 3 Xrotation Yrotation Zrotation
									JOINT mixamorigLeftHandRing2
									{
										OFFSET 2.740799 0.000000 -0.000000
										CHANNELS 3 Xrotation Yrotation Zrotation
										JOINT mixamorigLeftHandRing3
										{
											OFFSET 2.757607 0.000000 -0.000000
											CHANNELS 3 Xrotation Yrotation Zrotation
											JOINT mixamorigLeftHandRing4
											{
												OFFSET 2.285004 0.000000 -0.000000
												CHANNELS 3 Xrotation Yrotation Zrotation
												End Site
												{
													OFFSET 2.285004 0.000031 0.003000
												}
											}
										}
									}
								}
								JOINT mixamorigLeftHandPinky1
								{
									OFFSET 7.700752 -0.253616 -3.945376
									CHANNELS 3 Xrotation Yrotation Zrotation
									JOINT mixamorigLeftHandPinky2
									{
										OFFSET 2.527405 0.000000 0.000000
										CHANNELS 3 Xrotation Yrotation Zrotation
										JOINT mixamorigLeftHandPinky3
										{
											OFFSET 2.003403 0.000000 0.000000
											CHANNELS 3 Xrotation Yrotation Zrotation
											JOINT mixamorigLeftHandPinky4
											{
												OFFSET 1.854500 0.000000 0.000000
												CHANNELS 3 Xrotation Yrotation Zrotation
												End Site
												{
													OFFSET 1.854507 -0.000015 -0.001300
												}
											}
										}
									}
								}
							}
						}
					}
				}
				JOINT mixamorigRightShoulder
				{
					OFFSET -5.949100 13.237015 -0.538657
					CHANNELS 3 Xrotation Yrotation Zrotation
					JOINT mixamorigRightArm
					{
						OFFSET -11.918104 -3.676208 -0.002847
						CHANNELS 3 Xrotation Yrotation Zrotation
						JOINT mixamorigRightForeArm
						{
							OFFSET -23.819902 0.000000 0.000001
							CHANNELS 3 Xrotation Yrotation Zrotation
							JOINT mixamorigRightHand
							{
								OFFSET -24.559902 0.000000 0.000001
								CHANNELS 3 Xrotation Yrotation Zrotation
								JOINT mixamorigRightHandThumb1
								{
									OFFSET -2.702209 -1.308395 2.527615
									CHANNELS 3 Xrotation Yrotation Zrotation
									JOINT mixamorigRightHandThumb2
									{
										OFFSET -2.432022 -1.404129 1.404127
										CHANNELS 3 Xrotation Yrotation Zrotation
										JOINT mixamorigRightHandThumb3
										{
											OFFSET -2.375206 -1.371323 1.371325
											CHANNELS 3 Xrotation Yrotation Zrotation
											JOINT mixamorigRightHandThumb4
											{
												OFFSET -1.987808 -1.147659 1.147661
												CHANNELS 3 Xrotation Yrotation Zrotation
												End Site
												{
													OFFSET -1.835846 -1.144562 1.380323
												}
											}
										}
									}
								}
								JOINT mixamorigRightHandIndex1
								{
									OFFSET -8.671478 -0.301926 2.442636
									CHANNELS 3 Xrotation Yrotation Zrotation
									JOINT mixamorigRightHandIndex2
									{
										OFFSET -3.068298 0.000000 0.000000
										CHANNELS 3 Xrotation Yrotation Zrotation
										JOINT mixamorigRightHandIndex3
										{
											OFFSET -2.779701 0.000000 0.000000
											CHANNELS 3 Xrotation Yrotation Zrotation
											JOINT mixamorigRightHandIndex4
											{
												OFFSET -2.490097 0.000000 0.000000
												CHANNELS 3 Xrotation Yrotation Zrotation
												End Site
												{
													OFFSET -2.490097 0.000000 -0.000700
												}
											}
										}
									}
								}
								JOINT mixamorigRightHandMiddle1
								{
									OFFSET -8.656311 0.000000 0.000000
									CHANNELS 3 Xrotation Yrotation Zrotation
									JOINT mixamorigRightHandMiddle2
									{
										OFFSET -3.230400 0.000000 0.000000
										CHANNELS 3 Xrotation Yrotation Zrotation
										JOINT mixamorigRightHandMiddle3
										{
											OFFSET -3.025497 0.000000 0.000000
											CHANNELS 3 Xrotation Yrotation Zrotation
											JOINT mixamorigRightHandMiddle4
											{
												OFFSET -2.688805 0.000000 0.000000
												CHANNELS 3 Xrotation Yrotation Zrotation
												End Site
												{
													OFFSET -2.688797 0.000000 -0.000700
												}
											}
										}
									}
								}
								JOINT mixamorigRightHandRing1
								{
									OFFSET -8.628174 0.073822 -2.089274
									CHANNELS 3 Xrotation Yrotation Zrotation
									JOINT mixamorigRightHandRing2
									{
										OFFSET -2.674103 0.000000 0.000000
										CHANNELS 3 Xrotation Yrotation Zrotation
										JOINT mixamorigRightHandRing3
										{
											OFFSET -2.630905 0.000000 0.000000
											CHANNELS 3 Xrotation Yrotation Zrotation
											JOINT mixamorigRightHandRing4
											{
												OFFSET -2.160599 0.000000 0.000000
												CHANNELS 3 Xrotation Yrotation Zrotation
												End Site
												{
													OFFSET -2.160599 0.000000 -0.000900
												}
											}
										}
									}
								}
								JOINT mixamorigRightHandPinky1
								{
									OFFSET -7.514580 -0.339432 -3.927982
									CHANNELS 3 Xrotation Yrotation Zrotation
									JOINT mixamorigRightHandPinky2
									{
										OFFSET -2.510002 0.000000 0.000000
										CHANNELS 3 Xrotation Yrotation Zrotation
										JOINT mixamorigRightHandPinky3
										{
											OFFSET -2.099197 0.000000 0.000000
											CHANNELS 3 Xrotation Yrotation Zrotation
											JOINT mixamorigRightHandPinky4
											{
												OFFSET -1.845604 0.000000 0.000000
												CHANNELS 3 Xrotation Yrotation Zrotation
												End Site
												{
													OFFSET -1.845596 -0.000015 0.001600
												}
											}
										}
									}
								}
							}
						}
					}
				}
			}
		}
	}
	JOINT mixamorigLeftUpLeg
	{
		OFFSET 9.392100 -5.572197 -0.093200
		CHANNELS 3 Xrotation Yrotation Zrotation
		JOINT mixamorigLeftLeg
		{
			OFFSET 0.292645 -42.228855 -2.734330
			CHANNELS 3 Xrotation Yrotation Zrotation
			JOINT mixamorigLeftFoot
			{
				OFFSET -0.292647 -39.069244 -1.515097
				CHANNELS 3 Xrotation Yrotation Zrotation
				JOINT mixamorigLeftToeBase
				{
					OFFSET 1.771321 -7.534380 12.504712
					CHANNELS 3 Xrotation Yrotation Zrotation
					JOINT mixamorigLeftToe_End
					{
						OFFSET 0.606595 0.250482 5.917521
						CHANNELS 3 Xrotation Yrotation Zrotation
						End Site
						{
							OFFSET 0.606595 0.250482 5.917521
						}
					}
				}
			}
		}
	}
	JOINT mixamorigRightUpLeg
	{
		OFFSET -9.392100 -5.572197 -0.015200
		CHANNELS 3 Xrotation Yrotation Zrotation
		JOINT mixamorigRightLeg
		{
			OFFSET -0.292665 -42.228924 -2.850109
			CHANNELS 3 Xrotation Yrotation Zrotation
			JOINT mixamorigRightFoot
			{
				OFFSET 0.292671 -39.069195 -1.341140
				CHANNELS 3 Xrotation Yrotation Zrotation
				JOINT mixamorigRightToeBase
				{
					OFFSET -1.771318 -7.534140 12.379671
					CHANNELS 3 Xrotation Yrotation Zrotation
					JOINT mixamorigRightToe_End
					{
						OFFSET -0.606596 0.250612 6.000615
						CHANNELS 3 Xrotation Yrotation Zrotation
						End Site
						{
							OFFSET -0.606596 0.250612 6.000614
						}
					}
				}
			}
		}
	}
}
MOTION
Frames: 5
Frame Time: 0.033333
0.763978 94.765274 -0.205262 -3.272103 -5.896481 -3.241168 3.293337 1.542758 2.480006 1.155129 0.350193 1.801086 1.128934 0.369078 1.803919 5.562985 -0.018662 0.393188 -8.001188 1.714200 -0.329138 0.000000 -0.000000 -0.000000 1.037730 -17.316515 -12.384968 2.537845 -19.725200 -69.238468 -0.000008 -1.822629 0.000005 -33.885825 -2.345522 -5.336907 -0.752924 1.989530 5.021452 11.787301 25.288072 17.098511 -13.824296 3.507102 9.033815 0.000003 0.000004 0.000006 0.007738 -1.042225 -7.455929 0.267806 1.752712 -17.373894 0.057652 0.820751 -8.036002 -0.000000 -0.000001 -0.000004 -0.072759 2.661673 -15.499513 0.266871 1.749722 -17.343249 0.298525 1.847935 -18.351069 0.000001 -0.000000 0.000000 0.125327 3.609117 -21.074538 0.385847 2.092776 -20.890938 0.282419 1.798693 -17.845083 0.000001 0.000001 0.000002 0.821054 5.415525 -27.002086 0.268141 1.753786 -17.384732 0.241301 1.665626 -16.484738 0.000000 0.000001 0.000002 1.229592 15.538090 14.549935 12.239383 30.270121 58.557473 0.000012 8.363512 -0.000000 -21.791141 1.931970 5.745913 -1.748340 -0.074844 -3.925089 12.797576 -29.985029 -16.111272 -15.640829 -3.356214 -12.641636 0.000001 0.000000 0.000001 0.023224 1.221539 7.146950 0.213927 -1.396636 17.414814 0.046109 -0.654464 8.060865 -0.000003 0.000001 0.000002 -0.094168 -2.421140 15.754871 0.211442 -1.388752 17.313261 0.236582 -1.466900 18.321708 0.000002 -0.000002 0.000000 0.034855 -3.116108 21.111071 0.307187 -1.664990 20.905351 0.224746 -1.430678 17.853667 0.000001 -0.000000 -0.000003 0.713498 -4.833223 27.767441 0.213536 -1.395426 17.399202 0.192017 -1.324839 16.492972 0.000000 0.000002 -0.000001 -13.853038 14.717055 10.370080 15.888862 3.136988 4.444547 0.126356 -0.157165 -7.203602 -4.786112 0.000001 0.000004 0.000000 -0.000002 -0.000000 -1.809522 -10.060480 2.447140 9.395998 -9.571421 -3.353165 -3.834050 -1.613459 3.537221 -7.262722 0.000005 -0.000003 0.000000 0.000002 0.000001 
0.823607 94.782631 -0.205301 -3.345249 -5.684835 -3.247346 3.293599 1.557504 2.468464 1.156442 0.376026 1.783444 1.130240 0.395105 1.786488 5.592976 -0.029535 0.391959 -7.912649 1.655156 -0.303424 -0.000000 -0.000000 0.000000 1.039010 -17.302215 -12.372004 2.501800 -19.890788 -69.365468 -0.000004 -1.951671 -0.000009 -34.047199 -2.465863 -5.362413 -0.761876 1.974580 5.023095 11.784886 25.283204 17.100014 -13.824172 3.507497 9.033878 0.000003 -0.000000 0.000005 0.003071 -1.052213 -7.468846 0.267715 1.752407 -17.370745 0.057605 0.820432 -8.032828 -0.000000 -0.000001 -0.000003 -0.076286 2.648191 -15.492076 0.267106 1.750478 -17.350965 0.298766 1.848674 -18.358782 0.000001 0.000000 0.000000 0.124492 3.606623 -21.066158 0.385799 2.092639 -20.889447 0.282368 1.798562 -17.843673 0.000000 0.000001 0.000003 0.826415 5.422363 -26.987737 0.268239 1.754086 -17.387867 0.241383 1.665931 -16.487856 -0.000000 -0.000001 -0.000003 1.231900 15.552670 14.536497 12.395114 30.465765 58.434809 -0.000004 8.437712 0.000024 -21.979938 1.989467 5.815912 -1.753723 -0.046917 -4.022656 12.737870 -29.874978 -16.124881 -15.612911 -3.418267 -12.661653 0.000002 0.000000 0.000001 0.027911 1.280468 6.932674 0.214488 -1.398499 17.438921 0.046395 -0.656416 8.085079 0.000001 0.000001 0.000001 -0.098583 -2.387770 15.525956 0.211671 -1.389517 17.323211 0.236838 -1.467670 18.331746 -0.000002 -0.000001 -0.000000 0.034971 -3.107497 20.908066 0.308099 -1.667350 20.936410 0.225515 -1.433103 17.884859 -0.000000 -0.000001 -0.000004 0.718880 -4.839637 27.414086 0.214014 -1.396929 17.418526 0.192488 -1.326446 16.513473 -0.000001 -0.000001 -0.000000 -13.759517 14.745572 10.342013 15.797948 2.868532 4.375442 0.181604 -0.116705 -7.092268 -4.799193 0.000006 0.000002 0.000000 -0.000003 -0.000000 -1.483606 -10.075455 2.490237 8.907142 -9.751854 -3.423992 -3.590931 -1.602639 3.588998 -7.268381 -0.000002 -0.000004 0.000001 0.000003 0.000001 
0.858114 94.798912 -0.197027 -3.427998 -5.504540 -3.248665 3.295579 1.569743 2.455547 1.158852 0.397718 1.763723 1.132653 0.417041 1.766969 5.629156 -0.035079 0.389279 -7.811142 1.619871 -0.267973 -0.000000 0.000000 0.000000 1.040812 -17.292046 -12.355934 2.540655 -20.008192 -69.468106 0.000008 -2.038357 -0.000004 -34.175282 -2.528623 -5.414003 -0.757977 1.984276 4.997722 11.791629 25.296866 17.095895 -13.823408 3.509664 9.034019 0.000002 0.000003 0.000001 0.006411 -1.039564 -7.479315 0.267600 1.752039 -17.366919 0.057555 0.820043 -8.029033 0.000000 -0.000000 0.000001 -0.074763 2.654144 -15.495853 0.267188 1.750682 -17.352997 0.298818 1.848874 -18.360809 0.000000 0.000000 0.000001 0.124517 3.607072 -21.074226 0.385794 2.092631 -20.889404 0.282367 1.798554 -17.843622 -0.000000 -0.000000 -0.000003 0.839840 5.440180 -27.000837 0.268195 1.753911 -17.386014 0.241334 1.665748 -16.485990 -0.000001 -0.000000 -0.000001 1.233273 15.558112 14.528577 12.598406 30.600897 58.323402 -0.000008 8.441284 0.000022 -22.116173 1.910984 5.974650 -1.755529 -0.027798 -4.107705 12.689246 -29.785195 -16.135919 -15.584788 -3.480789 -12.681798 0.000002 -0.000002 0.000001 0.031208 1.343438 6.761509 0.214127 -1.397369 17.424265 0.046237 -0.655245 8.070457 -0.000002 0.000002 0.000003 -0.107840 -2.334160 15.275547 0.211977 -1.390415 17.334761 0.237125 -1.468580 18.343494 -0.000000 -0.000001 -0.000000 0.035483 -3.099187 20.686835 0.307937 -1.666925 20.930684 0.225376 -1.432659 17.879318 -0.000001 -0.000000 -0.000001 0.731600 -4.858328 27.038829 0.214414 -1.398202 17.434961 0.192906 -1.327855 16.531494 -0.000001 0.000002 0.000002 -13.630364 14.765441 10.314431 15.679908 2.636037 4.320136 0.245573 -0.070883 -7.012205 -4.813175 0.000005 0.000004 -0.000000 0.000000 0.000001 -1.152750 -10.096905 2.530692 8.444581 -9.893677 -3.474766 -3.372191 -1.592173 3.615234 -7.263974 -0.000013 -0.000008 -0.000000 -0.000002 0.000001 
0.870516 94.814072 -0.176872 -3.527434 -5.355882 -3.246743 3.300487 1.576013 2.441301 1.163554 0.409480 1.742211 1.137377 0.429110 1.745617 5.672876 -0.037759 0.389409 -7.699242 1.601198 -0.236885 -0.000000 -0.000000 -0.000000 1.043850 -17.297669 -12.333363 2.641828 -20.060973 -69.553456 -0.000023 -2.057580 0.000005 -34.214115 -2.508332 -5.493865 -0.739612 2.020148 4.952758 11.804965 25.323780 17.087807 -13.821939 3.513964 9.034329 0.000002 -0.000003 -0.000000 0.012918 -1.016948 -7.493324 0.267541 1.751860 -17.365093 0.057521 0.819865 -8.027281 -0.000001 -0.000000 -0.000001 -0.067807 2.681158 -15.517609 0.267259 1.750978 -17.356045 0.298933 1.849168 -18.363819 -0.000001 0.000000 0.000003 0.126493 3.612888 -21.090827 0.385828 2.092721 -20.890320 0.282387 1.798626 -17.844388 -0.000000 -0.000000 0.000005 0.862794 5.470151 -27.033511 0.268000 1.753269 -17.379444 0.241134 1.665102 -16.479454 0.000000 -0.000000 0.000000 1.231443 15.546902 14.539251 12.848432 30.699904 58.200315 0.000003 8.377732 0.000020 -22.168692 1.735238 6.189591 -1.761585 -0.001606 -4.187768 12.640793 -29.695572 -16.146900 -15.553866 -3.549522 -12.703944 0.000000 0.000003 0.000005 0.036716 1.417933 6.551839 0.213099 -1.394056 17.381658 0.045741 -0.651810 8.027847 0.000001 -0.000001 -0.000003 -0.120635 -2.259491 14.950239 0.212103 -1.390836 17.340141 0.237287 -1.469028 18.349185 0.000003 -0.000001 -0.000000 0.032869 -3.080432 20.419137 0.307060 -1.664637 20.900553 0.224624 -1.430331 17.849233 -0.000002 0.000001 -0.000003 0.742795 -4.879012 26.583878 0.214640 -1.398947 17.444599 0.193166 -1.328716 16.542494 -0.000001 0.000001 0.000002 -13.459187 14.774748 10.284516 15.542785 2.443926 4.283183 0.310620 -0.020341 -6.964977 -4.835012 -0.000004 0.000001 -0.000000 0.000001 -0.000000 -0.807181 -10.128617 2.566684 8.007946 -9.992029 -3.505343 -3.179191 -1.582595 3.619333 -7.251668 -0.000004 -0.000007 0.000001 0.000002 0.000001 
0.863567 94.828049 -0.144455 -3.641764 -5.241382 -3.245430 3.307167 1.575507 2.425776 1.169190 0.409884 1.718872 1.143055 0.429879 1.722365 5.723940 -0.039429 0.398312 -7.586383 1.594171 -0.217008 -0.000000 0.000000 0.000000 1.047483 -17.308702 -12.307289 2.790859 -20.067316 -69.629517 -0.000007 -2.001244 0.000006 -34.130158 -2.390619 -5.596000 -0.711044 2.074256 4.894532 11.824685 25.363522 17.075814 -13.819563 3.520915 9.034823 0.000001 -0.000004 0.000002 0.016567 -0.997539 -7.525595 0.267591 1.752037 -17.366881 0.057547 0.820046 -8.029114 0.000001 -0.000000 0.000000 -0.059015 2.716406 -15.558083 0.267531 1.751840 -17.364912 0.299213 1.850023 -18.372635 0.000000 0.000000 0.000001 0.131921 3.628043 -21.113588 0.385871 2.092837 -20.891541 0.282414 1.798694 -17.845121 0.000001 -0.000001 0.000005 0.892026 5.508371 -27.079480 0.267807 1.752702 -17.373718 0.240974 1.664547 -16.473786 0.000001 -0.000000 0.000001 1.224370 15.514355 14.580239 13.148631 30.788211 58.037927 -0.000006 8.258188 -0.000003 -22.101896 1.494168 6.417518 -1.769954 0.026149 -4.252945 12.597892 -29.616072 -16.156601 -15.523415 -3.617283 -12.725744 0.000004 -0.000001 -0.000001 0.044926 1.495078 6.305641 0.213026 -1.393771 17.377994 0.045694 -0.651512 8.024171 0.000003 0.000001 0.000001 -0.133722 -2.177959 14.594362 0.212063 -1.390683 17.338184 0.237238 -1.468896 18.347512 -0.000000 -0.000002 -0.000001 0.027401 -3.052876 20.133287 0.306425 -1.662973 20.878811 0.224078 -1.428646 17.827412 0.000000 0.000001 0.000000 0.744499 -4.899428 26.097113 0.215030 -1.400207 17.460923 0.193569 -1.330045 16.559543 0.000000 0.000001 0.000001 -13.253775 14.777304 10.259146 15.396187 2.291490 4.260461 0.370886 0.032648 -6.946723 -4.861928 0.000000 -0.000001 0.000000 0.000003 -0.000000 -0.443789 -10.168842 2.602557 7.586578 -10.031292 -3.517819 -3.004437 -1.588541 3.602556 -7.246123 0.000002 -0.000006 0.000000 0.000003 0.000000 
